<?xml version="1.0" encoding="utf-8"?>
<!-- Generator: Adobe Illustrator 14.0.0, SVG Export Plug-In . SVG Version: 6.00 Build 43363)  -->
<!DOCTYPE svg PUBLIC "-//W3C//DTD SVG 1.1//EN" "http://www.w3.org/Graphics/SVG/1.1/DTD/svg11.dtd">
<svg version="1.1" id="Layer_1" xmlns="http://www.w3.org/2000/svg" xmlns:xlink="http://www.w3.org/1999/xlink" x="0px" y="0px"
	 width="792px" height="612px" viewBox="0 0 792 612" enable-background="new 0 0 792 612" xml:space="preserve">
<path fill="#010101" d="M17.777,12.261c0.43,0.751,0.46,1.706-0.005,2.506c-0.466,0.805-1.309,1.253-2.175,1.252h-31.201
	c-0.865-0.005-1.707-0.453-2.17-1.256c-0.465-0.806-0.431-1.76,0.002-2.508l15.6-27.023c0.434-0.749,1.243-1.253,2.171-1.253
	c0.927,0,1.737,0.504,2.173,1.253L17.777,12.261z M-2.158-3.764l1.114,10.587h2.229L2.3-3.764v-5.572h-4.458V-3.764z M-2.018,8.495
	v4.457h4.179V8.495H-2.018z"/>
</svg>
