<?xml version="1.0" encoding="utf-8"?>
<!-- Generator: Adobe Illustrator 14.0.0, SVG Export Plug-In . SVG Version: 6.00 Build 43363)  -->
<!DOCTYPE svg PUBLIC "-//W3C//DTD SVG 1.1//EN" "http://www.w3.org/Graphics/SVG/1.1/DTD/svg11.dtd">
<svg version="1.1" id="Layer_1" xmlns="http://www.w3.org/2000/svg" xmlns:xlink="http://www.w3.org/1999/xlink" x="0px" y="0px"
	 width="792px" height="612px" viewBox="0 0 792 612" enable-background="new 0 0 792 612" xml:space="preserve">
<path fill="#010101" d="M10.49658,4.99609c0.125-0.12402,2.56738,0.72949,2.8877,0.78711
	c1.01953,0.18359,2.11133,0.25684,3.11035-0.0752c2.38672-0.79688,2.84375-3.45312,1.71973-5.48633
	c-0.74512-1.3457-2.14746-2.68457-3.46289-3.47559c-0.25293-1.26074-1.26074-3.27734-2.77441-5.79883
	c-2.52148-3.5293-5.04297-5.54688-7.3125-6.30273c-1.24512-0.17871-3.99219-0.1748-3.02539,1.76367l-1.76367-0.75586
	c-1.26074-0.25195-2.26953-0.25195-3.02637,0.25293c-1.1377,0.75781-0.06348,2.76953,0.35938,3.58594
	c0.76465,1.47461,1.79883,2.76367,2.96484,3.94238c1.01367,1.02637,2.08984,2.00684,3.19922,2.92969
	C5.41357-1.9375,6.87451-2.03125,6.87451-2.03125C4.36279-0.08984,2.21045-2.25488-0.35107-3.26953
	C-5.1665-5.17676-9.3208-3.18457-12.01904,0.92578c-0.11426,0.1748-1.40039,1.93164-1.21777,2.12402
	c-1.24902-1.30859-3.0332-3.27148-4.79004-1.5127c-2.64453,2.64453,2.14258,6.49902,4.7793,6.30664
	c0.36523,0.93945,0.78223,1.88867,1.27148,2.77051c2.40527,4.33203,7.66406,4.91992,12.13574,4.7998
	c2.71777-0.07227,11.8291-0.02441,11.7373-4.39355c-0.03711-1.72949-2.66504-2.1709-3.95312-2.1709
	C8.85791,8.23926,9.69873,5.79785,10.49658,4.99609z"/>
</svg>
