<?xml version="1.0" encoding="utf-8"?>
<!-- Generator: Adobe Illustrator 14.0.0, SVG Export Plug-In . SVG Version: 6.00 Build 43363)  -->
<!DOCTYPE svg PUBLIC "-//W3C//DTD SVG 1.1//EN" "http://www.w3.org/Graphics/SVG/1.1/DTD/svg11.dtd">
<svg version="1.1" id="Layer_1" xmlns="http://www.w3.org/2000/svg" xmlns:xlink="http://www.w3.org/1999/xlink" x="0px" y="0px"
	 width="792px" height="612px" viewBox="0 0 792 612" enable-background="new 0 0 792 612" xml:space="preserve">
<path d="M18.441,8.706L16.475,6.74V3.236c0-0.414-0.336-0.75-0.75-0.75h-1.5c-0.414,0-0.75,0.336-0.75,0.75v0.616L9.958,0.229
	C9.819,0.086,9.628,0.004,9.429,0.001C9.234-0.013,9.038,0.076,8.895,0.215L0.226,8.7C0.007,8.914-0.06,9.237,0.056,9.52
	s0.39,0.467,0.694,0.467h0.524l-0.006,8.649c0,0.199,0.079,0.39,0.219,0.531c0.141,0.141,0.332,0.22,0.531,0.22h14.607
	c0.414,0,0.75-0.336,0.75-0.75v-8.65h0.536c0.303,0,0.577-0.183,0.693-0.463S18.656,8.92,18.441,8.706z"/>
<path fill="#FFFFFF" d="M5.325,17.615c-0.527,0-0.977-0.164-1.348-0.491s-0.557-0.719-0.557-1.176v-2.144
	c0-0.26-0.094-0.484-0.281-0.671c-0.187-0.188-0.411-0.281-0.671-0.281v-0.953c0.26,0,0.484-0.094,0.671-0.281
	c0.188-0.188,0.281-0.412,0.281-0.672V8.803c0-0.457,0.186-0.849,0.557-1.177c0.372-0.327,0.821-0.49,1.348-0.49v0.953
	c-0.261,0-0.484,0.094-0.671,0.281C4.466,8.557,4.372,8.781,4.372,9.042v2.382c0,0.336-0.317,0.635-0.953,0.896v0.114
	c0.635,0.26,0.953,0.559,0.953,0.895v2.382c0,0.26,0.094,0.484,0.281,0.671c0.187,0.188,0.411,0.281,0.671,0.281V17.615z
	 M13.336,16.663c0.261,0,0.484-0.094,0.671-0.281c0.188-0.187,0.281-0.411,0.281-0.671v-2.382c0-0.336,0.317-0.635,0.953-0.895
	v-0.114c-0.635-0.26-0.953-0.559-0.953-0.896V9.042c0-0.26-0.094-0.484-0.281-0.672c-0.187-0.187-0.411-0.281-0.671-0.281V7.136
	c0.527,0,0.977,0.164,1.348,0.49c0.372,0.328,0.557,0.72,0.557,1.177v2.144c0,0.26,0.094,0.484,0.281,0.672
	c0.187,0.187,0.411,0.281,0.671,0.281v0.953c-0.26,0-0.484,0.094-0.671,0.281c-0.188,0.188-0.281,0.411-0.281,0.671v2.144
	c0,0.457-0.186,0.849-0.557,1.176s-0.821,0.491-1.348,0.491V16.663z M12.205,12.956c-0.506,0.422-1.228,0.633-2.166,0.633H8.241
	v3.105H6.448V8.057h3.708c0.855,0,1.537,0.223,2.044,0.668c0.509,0.445,0.763,1.135,0.763,2.068
	C12.963,11.813,12.71,12.534,12.205,12.956z M10.828,9.844c-0.229-0.191-0.549-0.287-0.96-0.287H8.241V12.1h1.626
	c0.412,0,0.732-0.104,0.96-0.311s0.343-0.535,0.343-0.984S11.056,10.036,10.828,9.844z"/>
</svg>
