<?xml version="1.0" encoding="utf-8"?>
<!-- Generator: Adobe Illustrator 14.0.0, SVG Export Plug-In . SVG Version: 6.00 Build 43363)  -->
<!DOCTYPE svg PUBLIC "-//W3C//DTD SVG 1.1//EN" "http://www.w3.org/Graphics/SVG/1.1/DTD/svg11.dtd">
<svg version="1.1" id="Layer_1" xmlns="http://www.w3.org/2000/svg" xmlns:xlink="http://www.w3.org/1999/xlink" x="0px" y="0px"
	 width="792px" height="612px" viewBox="0 0 792 612" enable-background="new 0 0 792 612" xml:space="preserve">
<path fill-opacity="0" d="M10.439-18.081C7.366-19.86,3.808-20.895,0-20.895c-3.806,0-7.363,1.033-10.437,2.812
	c-6.245,3.614-10.459,10.347-10.459,18.081V0v0.002c0,7.734,4.21,14.472,10.457,18.083c3.075,1.778,6.633,2.81,10.439,2.81
	c3.808,0,7.366-1.035,10.44-2.814c6.241-3.613,10.457-10.347,10.457-18.078V0v-0.003C20.896-7.734,16.681-14.468,10.439-18.081z"/>
<path d="M0.003-0.001L0.003-0.001L0.003-0.001L0.003-0.001z M10.439-18.081C7.366-19.861,3.808-20.895,0-20.895
	c-3.806,0-7.362,1.034-10.437,2.812L0.003-0.001L10.439-18.081z M0.004,0l10.44,18.082c6.241-3.613,10.452-10.349,10.452-18.08V0
	H0.004z M-20.896,0v0.002c0,7.734,4.212,14.469,10.457,18.083L0.002,0H-20.896z"/>
</svg>
