<?xml version="1.0" encoding="utf-8"?>
<!-- Generator: Adobe Illustrator 14.0.0, SVG Export Plug-In . SVG Version: 6.00 Build 43363)  -->
<!DOCTYPE svg PUBLIC "-//W3C//DTD SVG 1.1//EN" "http://www.w3.org/Graphics/SVG/1.1/DTD/svg11.dtd">
<svg version="1.1" id="Layer_1" xmlns="http://www.w3.org/2000/svg" xmlns:xlink="http://www.w3.org/1999/xlink" x="0px" y="0px"
	 width="792px" height="612px" viewBox="0 0 792 612" enable-background="new 0 0 792 612" xml:space="preserve">
<path d="M10.607-10.851C9.494-9.458,8.936-7.509,8.658-5C8.379-5.558,7.821-5.836,7.543-6.393
	C4.479-9.458,0.855-11.13-3.603-11.13c-4.734,0-8.358,1.672-11.7,4.737c-2.786,3.343-4.458,7.242-4.458,11.7
	c0,0.558,0,1.115,0.278,1.672c0.226,0.452-1.911,3.394-1.909,4.333c0.005,1.763,1.643,2.912,3.303,2.912
	c3.343,0,5.293-2.229,5.851-6.966H4.757c0.278,4.736,2.509,6.966,6.13,6.966c1.416,0,3.253-1.434,3.201-2.916
	C14.041,9.976,12.653,8.4,12,7.258c0.28-0.558,0.559-1.394,0.559-1.951c0,0,0.278,0,0.557-0.278c1.87-0.934,2.978-2.54,3.38-4.564
	c0.405-2.036-0.149-4.396,0.798-6.301c0.838,0,1.673-0.557,2.51-1.115c2.598-1.731,1.764-5.543-0.717-6.764
	C16.096-15.187,12.519-13.242,10.607-10.851z"/>
</svg>
