<?xml version="1.0" encoding="utf-8"?>
<!-- Generator: Adobe Illustrator 14.0.0, SVG Export Plug-In . SVG Version: 6.00 Build 43363)  -->
<!DOCTYPE svg PUBLIC "-//W3C//DTD SVG 1.1//EN" "http://www.w3.org/Graphics/SVG/1.1/DTD/svg11.dtd">
<svg version="1.1" id="Layer_1" xmlns="http://www.w3.org/2000/svg" xmlns:xlink="http://www.w3.org/1999/xlink" x="0px" y="0px"
	 width="792px" height="612px" viewBox="0 0 792 612" enable-background="new 0 0 792 612" xml:space="preserve">
<path d="M20.3999,5.80029h1.2998V1.8999h-1.2998V0.6001H16.5v6.5h3.8999V5.80029z M20.2998,5.7002h-2.5V2h2.5V5.7002z M9.5,4.6001
	h3.8999v2.5h1.3999V1.8999h-1.3999V0.6001H9.5v1.2998H8.2998v5.2002H9.5V4.6001z M9.5,2h3.8999v1.2002H9.5V2z M1.3999,7.1001H0v-6.5
	h1.3999v1.2998h1.2998V3.2002h1.2002V1.8999h1.2002V0.6001H6.5v6.5H5.1001v-3.7998H3.8999v1.2998H2.6001v-1.2998H1.3999V7.1001z
	 M24.7998,2v1.2002h3.8999v1.3999h-3.8999v1.1001h3.8999v1.3999h-5.2998v-6.5h5.2998V2H24.7998z M6.5,16.2002h1.3999v-2.6001h3.7998
	v2.6001H13V11h-1.2002V9.7002h-4V11H6.5V16.2002z M7.8999,11.1001h3.7998v1.2002H7.8999V11.1001z M1.3999,16.2002H0v-6.5h5.2998
	v1.3999H1.3999v1.2002h3.8999v1.2998H1.3999V16.2002z M22.1001,9.7002h6.59961v1.3999H26v5.1001h-1.30029v-5.1001H22.1001V9.7002z
	 M14.3999,11h1.2002V9.7002h5.2998v1.3999h-5.2002v1.2002H19.5v1.2998h-3.8999v-1.2002h-1.2002V11z M19.5,14.80029v-1.2002h1.3999
	v1.2998H19.5v1.30029h-5.1001v-1.3999H19.5z M7.7998,18.80029H9.1001V24H7.8999v1.30029h-2.7002V24H3.8999v-3.8999h1.3999V24h2.5
	V18.80029z M1.3999,24h2.5v1.30029H1.2998V24H0v-5.19971h1.3999V24z M11.2998,18.80029H12.5v6.5h-1.2002V18.80029z
	 M17.19971,25.30029v-5.2002h-2.5v-1.2998h6.40039v1.2998H18.5v5.2002H17.19971z M27.1001,18.80029H28.5v6.5h-1.3999v-2.6001h-2.5
	v2.6001H23.2998v-6.5h1.30029v2.59961h2.5V18.80029z M13.3999,29.2002h1.3999v3.8999h-1.3999v1.2998H9.5v-6.5h3.8999V29.2002h-2.5
	V33h2.5V29.2002z M18.8999,27.8999h5.2998v1.30029H19V30.5h3.8999v1.2002h1.2998v1.3999h-1.2998v1.2998h-5.1001V33h5.1001v-1.19971
	h-4v-1.2002h-1.1001v-1.3999h1.1001V27.8999z M0,27.8999h6.5v1.30029H3.8999v5.19971H2.6001V29.2002H0V27.8999z M27.19971,27.8999
	H28.5v6.5h-1.30029V27.8999z M64.6001,5.1001C61.2998,1.7002,57.1001,0,52.2998,0c-4.8999,0-9,1.7002-12.3999,5.1001
	c-3.5,3.5-5.2002,7.6001-5.2002,12.3999c0,4.8999,1.7002,9,5.2002,12.30029c3.3999,3.5,7.5,5.19971,12.3999,5.19971
	c4.80029,0,9-1.69971,12.30029-5.19971C68,26.5,69.7998,22.3999,69.7998,17.5C69.7998,12.7002,68,8.6001,64.6001,5.1001z
	 M52.2998,2.80029c2.7002,0,5.2002,0.69971,7.5,2L52.2998,17.5h14.6001c0,4-1.5,7.3999-4.3999,10.30029
	c-0.80029,0.8999-1.80029,1.69971-3,2.2998L52.2998,17.5l-7.3999,12.6001c-1.1001-0.6001-2-1.3999-3-2.2998
	C39,24.8999,37.69971,21.5,37.69971,17.5h14.6001L44.8999,4.7002C47,3.5,49.5,2.80029,52.2998,2.80029z"/>
</svg>
