<?xml version="1.0" encoding="utf-8"?>
<!-- Generator: Adobe Illustrator 14.0.0, SVG Export Plug-In . SVG Version: 6.00 Build 43363)  -->
<!DOCTYPE svg PUBLIC "-//W3C//DTD SVG 1.1//EN" "http://www.w3.org/Graphics/SVG/1.1/DTD/svg11.dtd">
<svg version="1.1" id="Layer_1" xmlns="http://www.w3.org/2000/svg" xmlns:xlink="http://www.w3.org/1999/xlink" x="0px" y="0px"
	 width="792px" height="612px" viewBox="0 0 792 612" enable-background="new 0 0 792 612" xml:space="preserve">
<path fill="#010101" d="M16.08789,11.09668c0.38867,0.67969,0.41602,1.54395-0.00488,2.26758
	c-0.4209,0.72852-1.18359,1.13379-1.96777,1.13281h-28.23633c-0.7832-0.00391-1.54492-0.41016-1.96387-1.13672
	c-0.4209-0.72852-0.38965-1.5918,0.00195-2.26953l14.11719-24.45508c0.39258-0.67773,1.125-1.13379,1.96484-1.13379
	c0.83887,0,1.57227,0.45605,1.96582,1.13379L16.08789,11.09668z M-1.95312-3.40625l1.00781,9.58105h2.01758l1.00879-9.58105
	v-5.04297h-4.03418V-3.40625z M-1.82617,7.6875v4.03418h3.78125V7.6875H-1.82617z"/>
</svg>
