<?xml version="1.0" encoding="utf-8"?>
<!-- Generator: Adobe Illustrator 14.0.0, SVG Export Plug-In . SVG Version: 6.00 Build 43363)  -->
<!DOCTYPE svg PUBLIC "-//W3C//DTD SVG 1.1//EN" "http://www.w3.org/Graphics/SVG/1.1/DTD/svg11.dtd">
<svg version="1.1" id="Layer_1" xmlns="http://www.w3.org/2000/svg" xmlns:xlink="http://www.w3.org/1999/xlink" x="0px" y="0px"
	 width="792px" height="612px" viewBox="0 0 792 612" enable-background="new 0 0 792 612" xml:space="preserve">
<circle cx="8.763" cy="8.704" r="8.763"/>
<circle fill="#FFFFFF" cx="8.691" cy="8.694" r="7.118"/>
<circle cx="32.803" cy="8.704" r="8.763"/>
<circle fill="#FFFFFF" cx="32.731" cy="8.694" r="7.118"/>
<circle cx="56.719" cy="8.704" r="8.763"/>
<circle fill="#FFFFFF" cx="56.647" cy="8.694" r="7.118"/>
<path d="M35.152,6.552c0-0.311-0.251-0.562-0.561-0.562h-3.555c-0.31,0-0.562,0.251-0.562,0.562v3.556h0.992v4.209h2.694v-4.209
	h0.992V6.552L35.152,6.552z M32.813,3.09c0.672,0,1.216,0.545,1.216,1.216c0,0.672-0.544,1.216-1.216,1.216
	c-0.671,0-1.216-0.544-1.216-1.216C31.597,3.635,32.142,3.09,32.813,3.09z"/>
<path d="M8.591,7.257C8.1,6.361,7.261,6.004,6.287,6.004c-1.417,0-2.545,1.002-2.545,2.699c0,1.726,1.061,2.7,2.593,2.7
	c0.984,0,1.822-0.54,2.285-1.359l-1.08-0.549c-0.241,0.578-0.608,0.751-1.07,0.751c-0.8,0-1.167-0.665-1.167-1.542
	c0-0.877,0.309-1.543,1.167-1.543c0.231,0,0.694,0.125,0.964,0.704L8.591,7.257z M13.612,7.257c-0.492-0.896-1.33-1.253-2.304-1.253
	c-1.417,0-2.545,1.002-2.545,2.699c0,1.726,1.061,2.7,2.594,2.7c0.983,0,1.822-0.54,2.285-1.359l-1.08-0.549
	c-0.241,0.578-0.607,0.751-1.07,0.751c-0.8,0-1.167-0.665-1.167-1.542c0-0.877,0.309-1.543,1.167-1.543
	c0.231,0,0.694,0.125,0.964,0.704L13.612,7.257z"/>
<path d="M63.768,12.544l0.567-1.628l-8.508-3.788c-0.049-0.064-0.077-0.137-0.077-0.218c0-0.543,0.61-0.676,1.042-0.676
	c0.533,0,1.065,0.21,1.486,0.51l1.142-1.174c-0.743-0.576-1.497-0.764-2.185-0.797v-1.34h-0.998v1.34
	c-1.063,0.062-1.938,0.621-2.239,1.542l-4.014-1.787l-0.818,1.515c0,0,4.831,2.152,4.832,2.152l0,0l0.342,0.152
	c0.193,0.086,0.387,0.172,0.587,0.261l2.651,1.181c0.144,0.123,0.235,0.287,0.235,0.522c0,0.665-0.565,0.864-1.075,0.864
	c-0.788,0-1.364-0.244-1.941-0.787l-1.198,1.207c0.721,0.632,1.664,1.031,2.639,1.041v1.341h0.998v-1.341
	c1.188-0.087,2.171-0.832,2.393-1.934L63.768,12.544z"/>
</svg>
