<?xml version="1.0" encoding="utf-8"?>
<!-- Generator: Adobe Illustrator 14.0.0, SVG Export Plug-In . SVG Version: 6.00 Build 43363)  -->
<!DOCTYPE svg PUBLIC "-//W3C//DTD SVG 1.1//EN" "http://www.w3.org/Graphics/SVG/1.1/DTD/svg11.dtd">
<svg version="1.1" id="Layer_1" xmlns="http://www.w3.org/2000/svg" xmlns:xlink="http://www.w3.org/1999/xlink" x="0px" y="0px"
	 width="792px" height="612px" viewBox="0 0 792 612" enable-background="new 0 0 792 612" xml:space="preserve">
<path fill="#010101" d="M11.599,5.52c0.139-0.137,2.837,0.807,3.191,0.87c1.127,0.203,2.333,0.284,3.437-0.083
	c2.638-0.881,3.143-3.815,1.9-6.062c-0.823-1.487-2.373-2.967-3.826-3.841c-0.279-1.393-1.394-3.621-3.065-6.407
	c-2.787-3.9-5.573-6.13-8.081-6.965c-1.376-0.197-4.411-0.193-3.343,1.949l-1.949-0.836c-1.393-0.278-2.508-0.278-3.344,0.28
	c-1.257,0.837-0.07,3.06,0.397,3.962c0.845,1.63,1.987,3.054,3.275,4.356c1.12,1.134,2.31,2.218,3.535,3.237
	c2.256,1.878,3.87,1.774,3.87,1.774C4.821-0.1,2.442-2.492-0.388-3.613C-5.709-5.72-10.299-3.519-13.28,1.023
	c-0.127,0.192-1.548,2.134-1.346,2.347c-1.381-1.446-3.353-3.615-5.293-1.672c-2.923,2.923,2.367,7.182,5.28,6.969
	c0.404,1.038,0.865,2.088,1.405,3.062c2.658,4.787,8.469,5.437,13.41,5.304c3.003-0.079,13.071-0.026,12.97-4.854
	c-0.041-1.911-2.945-2.398-4.368-2.398C9.788,9.104,10.718,6.406,11.599,5.52z"/>
</svg>
