<?xml version="1.0" encoding="utf-8"?>
<!-- Generator: Adobe Illustrator 14.0.0, SVG Export Plug-In . SVG Version: 6.00 Build 43363)  -->
<!DOCTYPE svg PUBLIC "-//W3C//DTD SVG 1.1//EN" "http://www.w3.org/Graphics/SVG/1.1/DTD/svg11.dtd">
<svg version="1.1" id="Layer_1" xmlns="http://www.w3.org/2000/svg" xmlns:xlink="http://www.w3.org/1999/xlink" x="0px" y="0px"
	 width="792px" height="612px" viewBox="0 0 792 612" enable-background="new 0 0 792 612" xml:space="preserve">
<path d="M18.44141,8.70605L16.4751,6.73975V3.23633c0-0.41406-0.33594-0.75-0.75-0.75h-1.5c-0.41406,0-0.75,0.33594-0.75,0.75
	v0.61621L9.95752,0.229c-0.13867-0.14307-0.3291-0.2251-0.52832-0.22754C9.23389-0.01318,9.0376,0.07568,8.89502,0.21533
	L0.22559,8.7002C0.00732,8.91357-0.05957,9.2373,0.05566,9.51953S0.44531,9.98633,0.75,9.98633h0.52441l-0.00635,8.64941
	c0,0.19873,0.07861,0.38965,0.21924,0.53076c0.14111,0.14062,0.33154,0.21973,0.53076,0.21973H16.625
	c0.41406,0,0.75-0.33594,0.75-0.75v-8.6499h0.53613c0.30322,0,0.57666-0.18262,0.69287-0.46289S18.65576,8.92041,18.44141,8.70605z"
	/>
<path fill="#FFFFFF" d="M5.32471,17.61523c-0.52734,0-0.97656-0.16357-1.34814-0.49072s-0.55713-0.71924-0.55713-1.17627v-2.14355
	c0-0.26025-0.09375-0.48389-0.28125-0.67139c-0.18701-0.1875-0.41113-0.28125-0.67139-0.28125v-0.95264
	c0.26025,0,0.48438-0.09375,0.67139-0.28076c0.1875-0.1875,0.28125-0.41162,0.28125-0.67188V8.80322
	c0-0.45703,0.18555-0.84912,0.55713-1.17676c0.37158-0.32666,0.8208-0.49023,1.34814-0.49023v0.95264
	c-0.26074,0-0.48438,0.09375-0.67139,0.28076c-0.1875,0.1875-0.28125,0.41162-0.28125,0.67188v2.38184
	c0,0.33643-0.31738,0.63525-0.95264,0.89551v0.11426c0.63525,0.26025,0.95264,0.55908,0.95264,0.89502v2.38184
	c0,0.26025,0.09375,0.48438,0.28125,0.67139c0.18701,0.1875,0.41064,0.28125,0.67139,0.28125V17.61523z M13.33643,16.6626
	c0.26074,0,0.48438-0.09375,0.67139-0.28125c0.1875-0.18701,0.28125-0.41113,0.28125-0.67139v-2.38184
	c0-0.33594,0.31738-0.63477,0.95264-0.89502v-0.11426c-0.63525-0.26025-0.95264-0.55908-0.95264-0.89551V9.0415
	c0-0.26025-0.09375-0.48438-0.28125-0.67188c-0.18701-0.18701-0.41064-0.28076-0.67139-0.28076V7.13623
	c0.52734,0,0.97656,0.16357,1.34814,0.49023c0.37158,0.32764,0.55713,0.71973,0.55713,1.17676v2.14355
	c0,0.26025,0.09375,0.48438,0.28125,0.67188c0.18701,0.18701,0.41113,0.28076,0.67139,0.28076v0.95264
	c-0.26025,0-0.48438,0.09375-0.67139,0.28125c-0.1875,0.1875-0.28125,0.41113-0.28125,0.67139v2.14355
	c0,0.45703-0.18555,0.84912-0.55713,1.17627s-0.8208,0.49072-1.34814,0.49072V16.6626z M12.20508,12.95557
	c-0.50586,0.42188-1.22754,0.63281-2.16602,0.63281H8.24072v3.10547H6.44775V8.05713h3.7085
	c0.85498,0,1.53662,0.22266,2.04443,0.66797c0.50879,0.44531,0.7627,1.13477,0.7627,2.06836
	C12.96338,11.81299,12.71045,12.53369,12.20508,12.95557z M10.82764,9.84424c-0.22852-0.19141-0.54883-0.28711-0.96045-0.28711
	H8.24072v2.54297h1.62646c0.41162,0,0.73193-0.10352,0.96045-0.31055s0.34277-0.53516,0.34277-0.98438
	S11.05615,10.03564,10.82764,9.84424z"/>
</svg>
