<?xml version="1.0" encoding="utf-8"?>
<!-- Generator: Adobe Illustrator 14.0.0, SVG Export Plug-In . SVG Version: 6.00 Build 43363)  -->
<!DOCTYPE svg PUBLIC "-//W3C//DTD SVG 1.1//EN" "http://www.w3.org/Graphics/SVG/1.1/DTD/svg11.dtd">
<svg version="1.1" id="Layer_1" xmlns="http://www.w3.org/2000/svg" xmlns:xlink="http://www.w3.org/1999/xlink" x="0px" y="0px"
	 width="792px" height="612px" viewBox="0 0 792 612" enable-background="new 0 0 792 612" xml:space="preserve">
<path fill="#010101" d="M15.535,2.118c2.508-5.573,3.344-9.194,2.506-10.589c-3.312-7.289-6.104,6.409-9.192,6.409
	C8.014-2.34,8.014-4.291,9.127-7.914c0.705-2.398,1.736-5.481,1.413-8.039c-0.272-2.15-3.329-4.529-4.874-2.16
	c-1.238,1.898-1.052,6.121-1.276,8.25C3.555-5.404,2.998-3.734,2.441-4.848C1.884-5.961,1.604-8.19,1.884-12.371
	c0.129-1.819,0.604-5.017-0.308-6.74c-0.985-1.862-3.952-2.645-5.082-0.567c-0.986,1.816-0.168,5.19,0.097,7.029
	c0.278,3.9,0.278,6.129,0,6.688c-0.28,1.113-1.115,0-2.231-3.066c-1.113-3.621-1.948-5.851-2.228-6.687
	c-0.471-2.342-3.844-2.284-4.844-0.47c-1.265,2.297,1.115,6.51,2.058,8.55c1.672,3.344,1.95,6.408,1.672,8.916
	c-0.279,1.394-1.672,0.836-4.179-2.229c-0.987-1.208-2.953-3.459-4.484-1.869c-2.045,2.12,0.838,6.704,2.255,8.278
	c0.836,1.394,3.9,4.18,8.637,8.357c1.394,1.115,1.394,2.786,0.558,5.015c0,0,0.882,2.08,8.485,2.08c7.604,0,8.532-2.08,8.532-2.08
	c-1.206-1.86-1.137-5.015-0.301-6.407C11.914,9.919,13.863,6.575,15.535,2.118z"/>
</svg>
