<?xml version="1.0" encoding="utf-8"?>
<!-- Generator: Adobe Illustrator 14.0.0, SVG Export Plug-In . SVG Version: 6.00 Build 43363)  -->
<!DOCTYPE svg PUBLIC "-//W3C//DTD SVG 1.1//EN" "http://www.w3.org/Graphics/SVG/1.1/DTD/svg11.dtd">
<svg version="1.1" id="Layer_1" xmlns="http://www.w3.org/2000/svg" xmlns:xlink="http://www.w3.org/1999/xlink" x="0px" y="0px"
	 width="792px" height="612px" viewBox="0 0 792 612" enable-background="new 0 0 792 612" xml:space="preserve">
<path fill="#010101" d="M14.05859,1.9165c2.26953-5.04297,3.02637-8.32031,2.26758-9.58203
	c-2.99707-6.59668-5.52344,5.7998-8.31836,5.7998c-0.75586-0.25195-0.75586-2.0166,0.25195-5.2959
	c0.6377-2.16992,1.57129-4.95996,1.27832-7.27441c-0.24609-1.94629-3.0127-4.09961-4.41113-1.95508
	c-1.12012,1.71777-0.95117,5.53906-1.1543,7.46582C3.2168-4.89014,2.71289-3.37842,2.20898-4.38721
	C1.7041-5.39502,1.45215-7.41162,1.7041-11.19482c0.11719-1.64648,0.54688-4.54004-0.27832-6.09961
	c-0.8916-1.68555-3.57617-2.39355-4.59863-0.51367c-0.89258,1.64355-0.15234,4.69727,0.08691,6.36133
	c0.25195,3.53027,0.25195,5.54688,0,6.05176c-0.25293,1.00781-1.00879,0-2.01855-2.77441
	c-1.00781-3.27734-1.76367-5.29492-2.0166-6.05176c-0.42578-2.11914-3.47852-2.06641-4.38281-0.4248
	c-1.14453,2.0791,1.00879,5.8916,1.86133,7.7373c1.51367,3.02637,1.76562,5.7998,1.51367,8.06934
	c-0.25293,1.26074-1.51367,0.75586-3.78223-2.01758c-0.89355-1.09375-2.67188-3.13086-4.05762-1.69238
	c-1.85059,1.91895,0.75781,6.06738,2.04004,7.49219c0.75684,1.26074,3.53027,3.78223,7.81641,7.56348
	c1.26074,1.00879,1.26074,2.52148,0.50488,4.53809c0,0,0.79785,1.88184,7.67871,1.88184c6.88184,0,7.72168-1.88184,7.72168-1.88184
	c-1.0918-1.68359-1.0293-4.53809-0.27246-5.79883C10.78125,8.97705,12.5459,5.95068,14.05859,1.9165z"/>
</svg>
