<?xml version="1.0" encoding="utf-8"?>
<!-- Generator: Adobe Illustrator 14.0.0, SVG Export Plug-In . SVG Version: 6.00 Build 43363)  -->
<!DOCTYPE svg PUBLIC "-//W3C//DTD SVG 1.1//EN" "http://www.w3.org/Graphics/SVG/1.1/DTD/svg11.dtd">
<svg version="1.1" id="Layer_1" xmlns="http://www.w3.org/2000/svg" xmlns:xlink="http://www.w3.org/1999/xlink" x="0px" y="0px"
	 width="792px" height="612px" viewBox="0 0 792 612" enable-background="new 0 0 792 612" xml:space="preserve">
<path fill="#010101" d="M10.96777-13.11133v-0.25293H6.42969c-0.25195,0.75781-0.75684,1.76562-0.75684,3.02637
	C4.91699-7.56445,5.41992-5.04297,6.93359-2.77344l0,0l0,0c1.00781,1.5127,1.26074,3.02637,1.00781,4.79004
	C7.69043,3.27734,7.18555,4.53809,6.17773,5.54688c0,0,0,0,0,0.25195h4.28516c0.75781-1.00781,1.00977-2.26855,1.26074-3.5293
	c0.50488-2.52148,0-5.04297-1.51172-7.3125v-0.25195c-1.00977-1.26074-1.5127-2.77344-1.00977-4.53809v-0.25195
	C9.45508-11.3457,9.95996-12.35449,10.96777-13.11133z M-5.67383-13.36426v0.25293c-0.75586,0.75684-1.5127,1.76562-1.76367,3.02637
	v0.25195c-0.25293,1.76465,0,3.27734,1.00781,4.53809v0.25195c1.51367,2.26953,2.0166,4.79102,1.51367,7.3125
	c-0.25293,1.26074-0.75781,2.52148-1.26074,3.5293h-4.54004c0.25293-0.25195,0.25293-0.25195,0.50488-0.25195
	c0.75586-1.00879,1.26074-2.26953,1.51367-3.53027c0.50293-1.76367,0-3.27734-0.75781-4.79004h-0.25195l0,0
	c-1.51172-2.26953-2.0166-4.79102-1.51172-7.56445c0.25098-1.26074,0.50293-2.26855,1.00781-3.02637H-5.67383z M2.64746-13.36426
	v0.25293c-0.75684,0.75684-1.5127,1.76562-1.76465,3.02637v0.25195c-0.25293,1.76465,0,3.27734,1.00781,4.53809v0.25195
	c1.5127,2.26953,2.01758,4.79102,1.5127,7.3125c-0.25195,1.26074-0.50391,2.52148-1.26074,3.5293h-4.28613
	c0-0.25195,0-0.25195,0.25195-0.25195c0.75684-1.00879,1.26074-2.26953,1.51367-3.53027c0.25195-1.76367,0-3.27734-1.00879-4.79004
	l0,0l0,0c-1.5127-2.26953-2.01758-4.79102-1.26074-7.56445c0-1.26074,0.50391-2.26855,0.75586-3.02637H2.64746z M13.74121,8.8252
	v4.53809h-27.48242V8.8252H13.74121z"/>
</svg>
