<?xml version="1.0" encoding="utf-8"?>
<!-- Generator: Adobe Illustrator 14.0.0, SVG Export Plug-In . SVG Version: 6.00 Build 43363)  -->
<!DOCTYPE svg PUBLIC "-//W3C//DTD SVG 1.1//EN" "http://www.w3.org/Graphics/SVG/1.1/DTD/svg11.dtd">
<svg version="1.1" id="Layer_1" xmlns="http://www.w3.org/2000/svg" xmlns:xlink="http://www.w3.org/1999/xlink" x="0px" y="0px"
	 width="792px" height="612px" viewBox="0 0 792 612" enable-background="new 0 0 792 612" xml:space="preserve">
<path fill="#010101" d="M9.59912-9.81982C8.59131-8.55908,8.08643-6.79541,7.83545-4.5249
	C7.58252-5.02979,7.07764-5.28174,6.82568-5.78564c-2.77246-2.77344-6.05176-4.28711-10.08594-4.28711
	c-4.28516,0-7.56445,1.51367-10.58887,4.28711c-2.52148,3.02539-4.03418,6.55469-4.03418,10.58887
	c0,0.50488,0,1.00879,0.25195,1.5127c0.2041,0.40918-1.72949,3.07129-1.72754,3.92188
	c0.00391,1.59473,1.48633,2.63477,2.98828,2.63477c3.02539,0,4.79004-2.01758,5.29492-6.30371H4.3042
	c0.25195,4.28613,2.27051,6.30371,5.54785,6.30371c1.28125,0,2.94336-1.29688,2.89648-2.63867
	c-0.04199-1.20508-1.29785-2.63184-1.88867-3.66504c0.25293-0.50488,0.50488-1.26074,0.50488-1.76562c0,0,0.25195,0,0.50391-0.25195
	c1.69238-0.84473,2.69434-2.29883,3.05859-4.13086c0.36719-1.84277-0.13477-3.97754,0.72266-5.70215
	c0.75781,0,1.51367-0.50391,2.27051-1.00879c2.35156-1.56738,1.59668-5.0166-0.64844-6.12109
	C14.56592-13.74365,11.32861-11.98291,9.59912-9.81982z"/>
</svg>
