<?xml version="1.0" encoding="utf-8"?>
<!-- Generator: Adobe Illustrator 14.0.0, SVG Export Plug-In . SVG Version: 6.00 Build 43363)  -->
<!DOCTYPE svg PUBLIC "-//W3C//DTD SVG 1.1//EN" "http://www.w3.org/Graphics/SVG/1.1/DTD/svg11.dtd">
<svg version="1.1" id="Layer_1" xmlns="http://www.w3.org/2000/svg" xmlns:xlink="http://www.w3.org/1999/xlink" x="0px" y="0px"
	 width="792px" height="612px" viewBox="0 0 792 612" enable-background="new 0 0 792 612" xml:space="preserve">
<path fill="#010101" d="M20.04492,0c-1.00879-2.0166-2.26953-3.78223-3.78223-5.79883
	c-4.28613-5.29492-9.83301-8.06934-16.38965-8.06934c-6.55469,0-11.84961,2.77441-16.38867,8.06934
	C-18.02734-3.78223-19.28809-2.0166-20.04492,0c0.75684,2.26855,2.01758,4.03418,3.5293,5.79883
	c4.53906,5.54688,9.83398,8.06836,16.38867,8.06836c6.55664,0,12.10352-2.52148,16.38965-8.06836
	C17.77539,4.03418,19.03613,2.26855,20.04492,0z M12.48047-4.03418c1.00977,1.25977,2.01758,2.77344,2.77344,4.28613
	c-0.75586,1.51367-1.76367,3.02539-2.77344,4.03516C8.9502,8.57227,4.91602,10.33789,0.12598,10.33789
	c-5.04297,0-9.3291-1.76562-12.60742-6.05078c-1.26074-1.00977-2.0166-2.52148-2.77344-4.03516
	c0.75684-1.5127,1.5127-3.02637,2.77344-4.28613c3.27832-3.78223,7.56445-6.05176,12.60742-6.05176
	C4.91602-10.08594,8.9502-7.81641,12.48047-4.03418z M3.7832,0c0,2.08887-1.69336,3.7832-3.7832,3.7832S-3.78418,2.08887-3.78418,0
	c0-2.09082,1.69434-3.78516,3.78418-3.78516S3.7832-2.09082,3.7832,0z M-0.00098-8.95508
	c-4.94727,0-8.95508,4.00781-8.95508,8.95508c0,4.94141,4.00781,8.9502,8.95508,8.9502c4.94434,0,8.95312-4.00879,8.95312-8.9502
	C8.95215-4.94727,4.94336-8.95508-0.00098-8.95508z"/>
</svg>
