<?xml version="1.0" encoding="utf-8"?>
<!-- Generator: Adobe Illustrator 14.0.0, SVG Export Plug-In . SVG Version: 6.00 Build 43363)  -->
<!DOCTYPE svg PUBLIC "-//W3C//DTD SVG 1.1//EN" "http://www.w3.org/Graphics/SVG/1.1/DTD/svg11.dtd">
<svg version="1.1" id="Layer_1" xmlns="http://www.w3.org/2000/svg" xmlns:xlink="http://www.w3.org/1999/xlink" x="0px" y="0px"
	 width="792px" height="612px" viewBox="0 0 792 612" enable-background="new 0 0 792 612" xml:space="preserve">
<path d="M22.15,0c-1.115-2.229-2.508-4.18-4.18-6.407c-4.736-5.852-10.865-8.917-18.11-8.917
	c-7.243,0-13.094,3.065-18.109,8.917C-19.92-4.18-21.313-2.229-22.149,0c0.836,2.507,2.229,4.458,3.9,6.408
	c5.016,6.129,10.866,8.915,18.109,8.915c7.245,0,13.374-2.786,18.11-8.915C19.643,4.458,21.035,2.506,22.15,0z M13.791-4.458
	c1.116,1.393,2.229,3.065,3.064,4.736c-0.835,1.673-1.948,3.343-3.064,4.459c-3.9,4.735-8.358,6.687-13.651,6.687
	c-5.572,0-10.309-1.951-13.932-6.687c-1.393-1.116-2.229-2.786-3.064-4.459c0.836-1.671,1.672-3.344,3.064-4.736
	c3.623-4.179,8.359-6.687,13.932-6.687C5.433-11.145,9.891-8.637,13.791-4.458z M4.181,0C4.181,2.308,2.31,4.18,0,4.18
	C-2.309,4.18-4.182,2.308-4.182,0c0-2.311,1.873-4.183,4.182-4.183C2.31-4.183,4.181-2.311,4.181,0z M-0.001-9.896
	c-5.467,0-9.896,4.429-9.896,9.896c0,5.46,4.429,9.89,9.896,9.89c5.464,0,9.894-4.43,9.894-9.89
	C9.893-5.467,5.463-9.896-0.001-9.896z"/>
</svg>
