<?xml version="1.0" encoding="utf-8"?>
<!-- Generator: Adobe Illustrator 14.0.0, SVG Export Plug-In . SVG Version: 6.00 Build 43363)  -->
<!DOCTYPE svg PUBLIC "-//W3C//DTD SVG 1.1//EN" "http://www.w3.org/Graphics/SVG/1.1/DTD/svg11.dtd">
<svg version="1.1" id="Layer_1" xmlns="http://www.w3.org/2000/svg" xmlns:xlink="http://www.w3.org/1999/xlink" x="0px" y="0px"
	 width="792px" height="612px" viewBox="0 0 792 612" enable-background="new 0 0 792 612" xml:space="preserve">
<path d="M7.141,2.029h0.455V0.664H7.141V0.209H5.775v2.275h1.365V2.029z M7.105,1.994H6.23V0.699h0.875V1.994z M3.326,1.609H4.69
	v0.875h0.49v-1.82H4.69V0.209H3.326v0.455h-0.42v1.82h0.42V1.609z M3.326,0.699H4.69v0.42H3.326V0.699z M0.491,2.484h-0.49V0.209
	h0.49v0.455h0.455v0.455h0.42V0.664h0.42V0.209h0.49v2.275h-0.49v-1.33h-0.42v0.455H0.911V1.154h-0.42V2.484z M8.681,0.699v0.42
	h1.365v0.49H8.681v0.385h1.365v0.49H8.19V0.209h1.855v0.49H8.681z M2.275,5.669h0.49v-0.91h1.33v0.91h0.455v-1.82h-0.42V3.395h-1.4
	v0.455H2.275V5.669z M2.766,3.884h1.33v0.42h-1.33V3.884z M0.491,5.669h-0.49V3.395h1.854v0.49H0.491v0.42h1.365v0.455H0.491V5.669z
	 M7.735,3.395h2.311v0.49H9.101v1.785H8.646V3.884h-0.91V3.395z M5.041,3.849h0.42V3.395h1.854v0.49h-1.82v0.42h1.33v0.455H5.461
	v-0.42h-0.42V3.849z M6.826,5.179v-0.42h0.49v0.455h-0.49v0.455H5.041v-0.49H6.826z M2.73,6.579h0.455v1.82h-0.42v0.455H1.82V8.399
	H1.366V7.034h0.49v1.365H2.73V6.579z M0.491,8.399h0.875v0.455h-0.91V8.399H0.001v-1.82h0.49V8.399z M3.956,6.579h0.42v2.275h-0.42
	V6.579z M6.021,8.854v-1.82H5.146V6.579h2.24v0.455h-0.91v1.82H6.021z M9.485,6.579h0.49v2.275h-0.49v-0.91H8.61v0.91H8.155V6.579
	H8.61v0.91h0.875V6.579z M4.69,10.219h0.49v1.365H4.69v0.455H3.326V9.764H4.69V10.219H3.815v1.33H4.69V10.219z M6.616,9.764h1.855
	v0.455H6.65v0.455h1.365v0.42h0.455v0.49H8.016v0.455H6.23v-0.49h1.785v-0.419h-1.4v-0.42H6.23v-0.49h0.385V9.764z M0.001,9.764
	h2.274v0.455h-0.91v1.82H0.911v-1.82h-0.91V9.764z M9.521,9.764h0.455v2.275H9.521V9.764z M22.61,1.784
	c-1.155-1.19-2.625-1.785-4.305-1.785c-1.715,0-3.15,0.595-4.34,1.785c-1.225,1.225-1.82,2.66-1.82,4.34
	c0,1.715,0.595,3.15,1.82,4.305c1.189,1.225,2.625,1.82,4.34,1.82c1.68,0,3.15-0.595,4.305-1.82c1.19-1.155,1.82-2.59,1.82-4.305
	C24.431,4.444,23.801,3.009,22.61,1.784z M18.306,0.979c0.945,0,1.82,0.245,2.625,0.7l-2.625,4.445h5.11
	c0,1.4-0.525,2.59-1.54,3.605c-0.28,0.314-0.63,0.595-1.05,0.805l-2.52-4.41l-2.59,4.41c-0.385-0.21-0.7-0.49-1.05-0.805
	c-1.015-1.016-1.47-2.205-1.47-3.605h5.11l-2.59-4.479C16.451,1.224,17.326,0.979,18.306,0.979z"/>
</svg>
